<?xml version="1.0" encoding="utf-8"?>
<!-- Generator: Adobe Illustrator 18.0.0, SVG Export Plug-In . SVG Version: 6.00 Build 0)  -->
<!DOCTYPE svg PUBLIC "-//W3C//DTD SVG 1.1//EN" "http://www.w3.org/Graphics/SVG/1.1/DTD/svg11.dtd">
<svg version="1.1" id="Layer_1" xmlns="http://www.w3.org/2000/svg" xmlns:xlink="http://www.w3.org/1999/xlink" x="0px" y="0px"
	 viewBox="0 0 600 600" enable-background="new 0 0 600 600" xml:space="preserve">
<g>
	<path fill="#151515" d="M396.4,68.4h-28.3l29.3,31.8v15.2h-60.5V97.7h29.3l-29.3-31.8V50.7h59.3L396.4,68.4L396.4,68.4z
		 M325.2,68.4h-28.3l29.3,31.8v15.2h-60.5V97.7h29.3l-29.3-31.8V50.7h59.3L325.2,68.4L325.2,68.4z M254.5,69.1h-30.4v27.8h30.4v18.5
		h-52.1V50.7h52.1V69.1z"/>
</g>
<polygon fill="#1673B6" points="160.9,492.1 130,145 470,145 439,492.1 299.8,530.7 "/>
<polygon fill="#35A9DB" points="230.5,501.2 343,470 369.5,173.4 230.5,173.4 "/>
<g>
	<polygon fill="#FFFFFF" points="299.9,299.1 356.2,299.1 360.1,255.6 299.9,255.6 299.9,213 300,213 406.6,213 405.6,224.4 
		395.2,341.7 299.9,341.7 	"/>
	<polygon fill="#EBEBEB" points="300.1,409.7 299.9,409.8 252.5,397 249.5,363 226.5,363 206.8,363 212.7,429.8 299.9,454.1 
		300.1,454 	"/>
	<polygon fill="#FFFFFF" points="352.6,339.9 347.5,397 300,409.8 300,454 387.3,429.8 387.9,422.7 395.3,339.9 	"/>
	<polygon fill="#EBEBEB" points="300,213 300,239.4 300,255.4 300,255.6 197.3,255.6 197.3,255.6 197.2,255.6 196.3,246 
		194.4,224.4 193.4,213 	"/>
	<polygon fill="#EBEBEB" points="299.9,299.1 299.9,325.6 299.9,341.6 299.9,341.7 253.2,341.7 253.2,341.7 253.1,341.7 
		252.2,332.2 250.3,310.5 249.3,299.1 	"/>
</g>
</svg>
