<?xml version="1.0" encoding="utf-8"?>
<!-- Generator: Adobe Illustrator 18.0.0, SVG Export Plug-In . SVG Version: 6.00 Build 0)  -->
<!DOCTYPE svg PUBLIC "-//W3C//DTD SVG 1.1//EN" "http://www.w3.org/Graphics/SVG/1.1/DTD/svg11.dtd">
<svg version="1.1" id="Layer_1" xmlns="http://www.w3.org/2000/svg" xmlns:xlink="http://www.w3.org/1999/xlink" x="0px" y="0px"
	 viewBox="0 0 32 32" enable-background="new 0 0 32 32" xml:space="preserve">
<g>
	<path fill="#413000" d="M21.6,8.1l-5.3-5.3c-0.3-0.3-0.8-0.3-1.1,0l-1.1,1.1l1.4,1.4c0.3-0.1,0.7,0,1,0.2s0.3,0.6,0.2,1l1.3,1.3
		c0.3-0.1,0.7,0,1,0.2c0.4,0.4,0.4,0.9,0,1.3c-0.4,0.4-0.9,0.4-1.3,0c-0.3-0.3-0.3-0.7-0.2-1l-1.2-1.3v3.3c0.1,0,0.2,0.1,0.2,0.2
		c0.4,0.4,0.4,0.9,0,1.3c-0.4,0.4-1,0.4-1.3,0c-0.4-0.4-0.4-1,0-1.3c0.1-0.1,0.2-0.2,0.3-0.2V7.1c-0.1,0-0.2-0.1-0.3-0.2
		c-0.3-0.3-0.3-0.7-0.2-1l-1.4-1.4L10,8.1c-0.3,0.3-0.3,0.8,0,1.1l5.3,5.3c0.3,0.3,0.8,0.3,1.1,0l5.2-5.2
		C21.9,8.9,21.9,8.4,21.6,8.1z"/>
</g>
<g>
	<path fill="#413000" d="M13.8,20.6c0.2,0.3,0.4,0.6,0.4,1.2c0,1.3-1,2-2.4,2c-0.4,0-0.7,0-0.9-0.1l-0.4,0.6l1.1,0.1
		c2,0.1,3.2,0.2,3.2,1.7c0,1.3-1.2,2.1-3.2,2.1c-2.1,0-2.9-0.5-2.9-1.4c0-0.5,0.2-0.8,0.6-1.2c-0.4-0.2-0.5-0.4-0.5-0.8
		c0-0.3,0.1-0.5,0.3-0.7c0.2-0.2,0.4-0.4,0.7-0.7c-0.6-0.3-1-0.9-1-1.7c0-1.3,0.9-2.2,2.6-2.2c0.5,0,0.8,0,1.1,0.1h2.2v1L13.8,20.6z
		 M10.4,25.9c-0.1,0.2-0.3,0.4-0.3,0.6c0,0.5,0.6,0.6,1.4,0.6c0.7,0,1.6-0.1,1.6-0.7c0-0.4-0.4-0.4-1-0.4L10.4,25.9z M11.6,20.6
		c-0.6,0-1.1,0.3-1.1,1.1c0,0.6,0.3,1,1.1,1c0.6,0,1.1-0.4,1.1-1C12.7,20.9,12.3,20.6,11.6,20.6z"/>
	<path fill="#413000" d="M15.4,25.4v-0.9l0.6-0.1c0.2,0,0.2-0.1,0.2-0.2v-3.4c0-0.1,0-0.2-0.1-0.2l-0.6-0.2l0.1-0.9h2.4v4.8
		c0,0.2,0,0.2,0.2,0.2l0.6,0.1v0.9H15.4z M16.9,18.5c-0.7,0-1-0.4-1-1c0-0.7,0.4-1,1-1c0.7,0,1,0.4,1,1
		C17.9,18.2,17.5,18.5,16.9,18.5z"/>
	<path fill="#413000" d="M23.2,25c-0.5,0.2-1.2,0.5-1.9,0.5c-1.4,0-1.9-0.6-1.9-1.8v-3c0-0.1,0-0.1-0.1-0.1h-0.8v-1
		c1-0.1,1.4-0.6,1.5-1.9h1.1v1.6c0,0.1,0,0.1,0.1,0.1h1.6v1.1h-1.7v2.7c0,0.7,0.2,0.9,0.8,0.9c0.3,0,0.7-0.1,0.9-0.2L23.2,25z"/>
</g>
</svg>
