<?xml version="1.0" encoding="utf-8"?>
<!-- Generator: Adobe Illustrator 18.0.0, SVG Export Plug-In . SVG Version: 6.00 Build 0)  -->
<!DOCTYPE svg PUBLIC "-//W3C//DTD SVG 1.1//EN" "http://www.w3.org/Graphics/SVG/1.1/DTD/svg11.dtd">
<svg version="1.1" id="Layer_1" xmlns="http://www.w3.org/2000/svg" xmlns:xlink="http://www.w3.org/1999/xlink" x="0px" y="0px"
	 viewBox="0 0 600 600" enable-background="new 0 0 600 600" xml:space="preserve">
<g>
	<polygon fill="#E45126" points="161.3,491.1 130.3,144.7 469.7,144.7 438.7,491 299.8,529.6 	"/>
	<polygon fill="#F1682B" points="300,500.1 412.3,469 438.7,173.1 300,173.1 	"/>
	<polygon fill="#EBEBEB" points="300,301.5 243.8,301.5 240,258.1 300,258.1 300,215.6 299.8,215.6 193.5,215.6 194.5,227 205,344 
		300,344 	"/>
	<polygon fill="#EBEBEB" points="300,411.9 299.8,411.9 252.5,399.1 249.5,365.2 226.5,365.2 206.9,365.2 212.8,431.9 299.8,456.1 
		300,456.1 	"/>
	<path fill="#020202" d="M161.9,50.7h21.6V72h19.8V50.7h21.6v64.6h-21.6V93.6h-19.8v21.6h-21.6L161.9,50.7L161.9,50.7z"/>
	<path fill="#020202" d="M253.2,72.1h-19V50.7h59.6v21.4h-19v43.2h-21.6L253.2,72.1L253.2,72.1z"/>
	<path fill="#020202" d="M303.3,50.7h22.5l13.8,22.7l13.8-22.7h22.5v64.6h-21.4v-32l-14.9,23h-0.4l-14.9-23v32h-21.1L303.3,50.7
		L303.3,50.7z"/>
	<path fill="#020202" d="M386.7,50.7h21.6v43.2h30.4v21.3h-52L386.7,50.7L386.7,50.7z"/>
	<polygon fill="#FFFFFF" points="299.8,301.5 299.8,344 352.2,344 347.3,399.1 299.8,411.9 299.8,456.1 387,431.9 387.6,424.8 
		397.6,312.9 398.6,301.5 387.1,301.5 	"/>
	<polygon fill="#FFFFFF" points="299.8,215.6 299.8,241.9 299.8,257.9 299.8,258.1 402.4,258.1 402.4,258.1 402.5,258.1 
		403.3,248.5 405.3,227 406.3,215.6 	"/>
</g>
</svg>
