<?xml version="1.0" encoding="utf-8"?>
<!-- Generator: Adobe Illustrator 18.0.0, SVG Export Plug-In . SVG Version: 6.00 Build 0)  -->
<!DOCTYPE svg PUBLIC "-//W3C//DTD SVG 1.1//EN" "http://www.w3.org/Graphics/SVG/1.1/DTD/svg11.dtd">
<svg version="1.1" id="Layer_1" xmlns="http://www.w3.org/2000/svg" xmlns:xlink="http://www.w3.org/1999/xlink" x="0px" y="0px"
	 viewBox="0 0 600 600" enable-background="new 0 0 600 600" xml:space="preserve">
<g>
	<path fill="#80152A" d="M467.9,465.3c0,26.7-21.6,48.3-48.2,48.3H132.1V134.7c0-26.6,21.6-48.2,48.2-48.2h287.5V465.3z"/>
	<linearGradient id="SVGID_1_" gradientUnits="userSpaceOnUse" x1="139.8589" y1="300.0039" x2="460.1406" y2="300.0039">
		<stop  offset="7.975460e-02" style="stop-color:#AA2237"/>
		<stop  offset="0.9816" style="stop-color:#B4313D"/>
	</linearGradient>
	<path fill="url(#SVGID_1_)" d="M460.1,460.7c0,25.6-19.3,44.9-44.9,44.9H139.9V139.3c0-25.7,19.3-44.9,44.9-44.9h275.4V460.7z"/>
	<polygon fill="#8A2034" points="210,94.7 211,188.1 141.7,211.3 	"/>
	<linearGradient id="SVGID_2_" gradientUnits="userSpaceOnUse" x1="209.9966" y1="141.3987" x2="302.5781" y2="141.3987">
		<stop  offset="3.680980e-02" style="stop-color:#B83A41"/>
		<stop  offset="0.8957" style="stop-color:#BF4A50"/>
	</linearGradient>
	<polygon fill="url(#SVGID_2_)" points="210,94.7 211,188.1 302.6,149.9 	"/>
	<polygon fill="#AE2338" points="172.1,280.1 211,188.1 141.7,211.3 	"/>
	<linearGradient id="SVGID_3_" gradientUnits="userSpaceOnUse" x1="175.7036" y1="373.7578" x2="175.7036" y2="280.1465">
		<stop  offset="3.680980e-02" style="stop-color:#A92237"/>
		<stop  offset="0.9387" style="stop-color:#972235"/>
	</linearGradient>
	<polygon fill="url(#SVGID_3_)" points="172.1,280.1 210.5,373.8 140.9,351.3 	"/>
	<polygon fill="#8A2034" points="210.1,505 210.5,373.8 140.9,351.3 	"/>
	<polygon fill="#8C2033" points="210.1,505 140.9,505 140.9,351.3 	"/>
	<linearGradient id="SVGID_4_" gradientUnits="userSpaceOnUse" x1="256.2688" y1="505.0166" x2="256.2688" y2="373.7578">
		<stop  offset="3.680980e-02" style="stop-color:#BC4245"/>
		<stop  offset="0.9387" style="stop-color:#A42136"/>
	</linearGradient>
	<polygon fill="url(#SVGID_4_)" points="210.1,505 210.5,373.8 302.4,411.6 	"/>
	<linearGradient id="SVGID_5_" gradientUnits="userSpaceOnUse" x1="348.9931" y1="188.5947" x2="348.9931" y2="95.2407">
		<stop  offset="3.680980e-02" style="stop-color:#CC5057"/>
		<stop  offset="0.8957" style="stop-color:#B73840"/>
	</linearGradient>
	<polygon fill="url(#SVGID_5_)" points="394.4,95.2 395.4,188.6 302.6,149.9 	"/>
	<linearGradient id="SVGID_6_" gradientUnits="userSpaceOnUse" x1="388.099" y1="175.9348" x2="427.7505" y2="153.042">
		<stop  offset="7.975460e-02" style="stop-color:#D4575F"/>
		<stop  offset="0.9448" style="stop-color:#B63540"/>
	</linearGradient>
	<polygon fill="url(#SVGID_6_)" points="394.4,95.2 395.4,188.6 459.9,211.6 	"/>
	<linearGradient id="SVGID_7_" gradientUnits="userSpaceOnUse" x1="395.4082" y1="234.9146" x2="459.8926" y2="234.9146">
		<stop  offset="0" style="stop-color:#C04B51"/>
		<stop  offset="1" style="stop-color:#B83A41"/>
	</linearGradient>
	<polygon fill="url(#SVGID_7_)" points="433.3,281.2 395.4,188.6 459.9,211.6 	"/>
	<linearGradient id="SVGID_8_" gradientUnits="userSpaceOnUse" x1="395.1602" y1="327.2969" x2="459.7598" y2="327.2969">
		<stop  offset="0" style="stop-color:#BA4044"/>
		<stop  offset="1" style="stop-color:#B4303C"/>
	</linearGradient>
	<polygon fill="url(#SVGID_8_)" points="433.3,281.2 395.2,373.4 459.8,350.3 	"/>
	<linearGradient id="SVGID_9_" gradientUnits="userSpaceOnUse" x1="381.573" y1="410.6898" x2="431.2025" y2="428.7535">
		<stop  offset="0" style="stop-color:#972136"/>
		<stop  offset="1" style="stop-color:#9F2236"/>
	</linearGradient>
	<polygon fill="url(#SVGID_9_)" points="395.9,504.8 395.2,373.4 459.8,350.3 	"/>
	<linearGradient id="SVGID_10_" gradientUnits="userSpaceOnUse" x1="339.0693" y1="380.8315" x2="423.5869" y2="481.5555">
		<stop  offset="3.680980e-02" style="stop-color:#B22C3A"/>
		<stop  offset="0.9387" style="stop-color:#C04D53"/>
	</linearGradient>
	<polygon fill="url(#SVGID_10_)" points="395.9,504.8 395.2,373.4 302.5,411.5 	"/>
	<linearGradient id="SVGID_11_" gradientUnits="userSpaceOnUse" x1="303.039" y1="505.0332" x2="303.039" y2="411.5381">
		<stop  offset="3.680980e-02" style="stop-color:#B22C3A"/>
		<stop  offset="0.9387" style="stop-color:#9B2135"/>
	</linearGradient>
	<polygon fill="url(#SVGID_11_)" points="395.9,504.8 210.2,505 302.5,411.5 	"/>
	<path fill="#F7DEE1" d="M312,308.8l20.9,9.6l-2.1-14.9l-19.1-10.2L312,308.8z M153.5,358.7l27.2,3.1l5.9-25.3l-26-4.6L153.5,358.7z
		 M250.3,183.6l-17.8-13.2l-12.4,16.8l19.5,12.2L250.3,183.6z M304.8,139.3l-11.4-14.9l-16.1,9.5l13.3,14.5L304.8,139.3z
		 M363.6,128.8l-3.7-12.2l-19.3-1.6l5.6,13.3L363.6,128.8z M429,144.1l-16.2-11.6v7.5l15.7,9.7L429,144.1z M209.5,252.2l-22.2-9.7
		l-7.5,22l22.8,8.5L209.5,252.2z M320.2,242.3l-4,13.6l14.3,13.2l3.6-12.7L320.2,242.3z M411.6,181.3l11.9,0.6l0.1-5.5l-12.4-2.5
		L411.6,181.3z M362.1,135.2c-57.2-2.8-159.6,51.4-174.3,269h140.3c-31.5-81.5-27.8-143-6.2-184.6c31.5-60.6,78.3-64.6,122-39.1
		c1.5-3.7,3.7-8.3,3.7-8.3C422.6,148.2,399.3,137,362.1,135.2z M366.3,180.4l5.2,12.5l9.7-5.2l-3.6-11.5L366.3,180.4z M334.6,208.7
		l10.6,14.6l6.6-9.6l-9.3-14.4L334.6,208.7z M350.9,378.7l-6.6-16l-24.3-4.5l6.4,18.4L350.9,378.7z"/>
	<g>
		<polygon fill="#FFFFFF" points="223.3,183 240,176 232.5,170.4 		"/>
		<polygon fill="#FFFFFF" points="290.7,148.4 295.2,145.5 279.5,136.1 		"/>
	</g>
	<g>
		<polygon fill="#D7C4C9" points="160.6,331.9 154.3,355.6 169.2,360.5 180.7,361.8 186.7,336.5 		"/>
		<path fill="#D7C4C9" d="M195.8,337.8c-1.7,9.5-3.2,19.4-4.5,29.8l19.2,6.2L195.8,337.8z"/>
	</g>
	<g>
		<polygon fill="#C2C3C6" points="154.3,355.6 153.5,358.7 169.2,360.5 		"/>
		<path fill="#C2C3C6" d="M210.5,373.8l-19.2-6.2c-1.4,11.7-2.6,23.9-3.5,36.6h22.6L210.5,373.8z"/>
	</g>
	<polygon fill="#DDC3C8" points="210.4,404.2 284.5,404.2 210.5,373.8 	"/>
	<linearGradient id="SVGID_12_" gradientUnits="userSpaceOnUse" x1="394.8848" y1="157.1709" x2="441.6836" y2="157.1709">
		<stop  offset="3.680980e-02" style="stop-color:#FFFFFF"/>
		<stop  offset="0.7423" style="stop-color:#F4E6D9"/>
	</linearGradient>
	<path fill="url(#SVGID_12_)" d="M417.1,135.6l-4.4-3.1v7.5l10.5,6.5L417.1,135.6z M428.9,156.5c-10.6-7.5-21.5-12.8-34-16.3
		l0.3,25.5c15.3,0,31.1,4.9,46.5,13.6L428.9,156.5z M411.6,181.3l11.9,0.6l0.1-5.5l-12.4-2.5L411.6,181.3z"/>
	<linearGradient id="SVGID_13_" gradientUnits="userSpaceOnUse" x1="317.7155" y1="125.3964" x2="393.2305" y2="168.9951">
		<stop  offset="3.680980e-02" style="stop-color:#FFFFFF"/>
		<stop  offset="0.8957" style="stop-color:#F4E6D9"/>
	</linearGradient>
	<path fill="url(#SVGID_13_)" d="M394.9,140.2c-9.8-2.8-20.5-4.4-32.7-5c-16.8-0.8-37.5,3.3-58.8,15l58.2,24.3
		c10.7-6.1,22-8.9,33.5-8.9L394.9,140.2z M363.6,128.8l-3.7-12.2l-1.3-0.1l-13.9,8.3l1.5,3.6L363.6,128.8z M371.3,178.5l8.2,3.4
		l-1.8-5.8L371.3,178.5z"/>
	<path fill="#FFFFFF" d="M211.8,453.2v-10.3c0-5.5-5.5-15.4-15.6-15.4c-10.1,0-32.8,0-32.8,0v62h16.8v-18.1l13.5,18.1h20.1
		l-15.7-20.9C198.1,468.5,211.8,465.8,211.8,453.2z M195.3,456.3h-15.2v-12.5h15.2V456.3z M260.4,427.1h-15.2
		c-7.6,0-15.6,7-15.6,16.1s0,45.9,0,45.9h16.5V477h14.8v12.1h16.8c0,0,0-37,0-46C277.7,434.1,269.6,427.1,260.4,427.1z M260.9,460.4
		h-14.8v-16.6h14.8V460.4z M414.4,449.5c-7.4,0-16.2,0-16.2,0v-6.8h28.3v-15.4c0,0-18.5,0-28.4,0c-10,0-16.8,7.9-16.8,15.9v6.6
		c0,9.6,8.6,16.2,16.6,16.2c8,0,15,0,15,0v7.5h-30.6v15.7c0,0,21.2,0,30.2,0c9,0,17.1-6.8,17.1-15V466
		C429.7,456.1,421.8,449.5,414.4,449.5z M346.8,427.3h-16.6v62.1h41.5v-16.6h-24.9V427.3z M295.6,489.3h16.6v-62.1h-16.6V489.3z"/>
</g>
</svg>
